<?xml version="1.0" encoding="iso-8859-1"?>
<!-- Generator: Adobe Illustrator 19.1.0, SVG Export Plug-In . SVG Version: 6.00 Build 0)  -->
<svg version="1.1" id="Layer_1" xmlns="http://www.w3.org/2000/svg" xmlns:xlink="http://www.w3.org/1999/xlink" x="0px" y="0px"
	 viewBox="0 0 750 353.982" style="enable-background:new 0 0 750 353.982;" xml:space="preserve">
<g>
	<path style="fill:#DDBF43;" d="M273.98,270.187c-2.45,5.134-4.933,9.19-7.427,12.105l-0.288,0.337l-0.343,0.281
		c-0.782,0.64-1.597,1.206-2.437,1.716l0.414,16.825c-0.216,6.614-6.181,12.112-13.919,12.805c-0.593,0.053-1.198,0.077-1.798,0.072
		l-0.159-0.001l-0.159,0.007l-178.973,7.083c-5.769,0.115-10.88-1.852-14.387-5.546c-3.28-3.468-4.87-8.207-4.491-13.35
		l23.608-198.254l0.014-0.122l0.008-0.123c0.5-7.289,3.87-13.899,9.478-18.604l72.817-60.872c4.04-3.365,9.078-5.145,14.576-5.154
		c7.347-0.013,14.443,3.137,19.508,8.634l61.139,72.11l0.111,0.125l0.118,0.119c5.268,5.309,8.128,12.021,8.035,18.915l-0.001,0.109
		l0.003,0.109l0.6,24.389c0.351-0.999,0.704-2.006,1.063-3.027c1.725-4.91,3.528-10.044,5.271-15.023l0.093-0.265l0.122-0.253
		c0.403-0.837,0.923-1.726,1.574-2.615c0.546-1.566,1.087-3.116,1.612-4.619c-0.548-8.821-4.556-17.546-11.212-24.299
		l-61.287-72.073l-0.106-0.13l-0.113-0.123c-7.247-7.938-17.365-12.505-27.787-12.505c-7.779,0-14.937,2.538-20.716,7.354
		L75.777,77.162c-7.76,6.511-12.646,16.11-13.398,26.334L38.497,302.082l-0.017,0.133l-0.011,0.133
		c-0.672,8.309,1.91,16.034,7.287,21.734c5.598,5.897,13.609,9.028,22.545,8.83l0.045-0.001l0.045-0.002l179.172-7.167
		c0.952,0.003,1.911-0.038,2.855-0.123c13.679-1.229,24.191-11.288,24.444-23.389l0.002-0.109l-0.003-0.109L273.98,270.187z"/>
	<path style="fill:#DDBF43;" d="M711.484,79.238c-0.893-2.898-2.91-5.575-5.996-7.965c-2.877-2.23-6.379-4.221-10.413-5.917
		c-4.075-1.719-8.137-2.857-12.073-3.377c-1.172-0.155-2.256-0.225-3.257-0.225c-5.005,0-7.964,1.747-9.637,3.388
		c-2.829,2.623-6.538,7.3-11.329,14.324c-4.69,6.935-9.935,15.287-15.583,24.846c-5.669,9.686-11.523,20.484-17.396,32.101
		c-5.857,11.711-11.319,23.605-16.237,35.337c-4.906,11.811-9.118,23.245-12.526,33.96c-0.246,0.777-0.477,1.535-0.706,2.291
		c-0.514,0.627-1.027,1.249-1.54,1.863c-5.952,7.172-11.679,13.456-17.025,18.663c-5.157,5.067-9.477,8.596-12.848,10.466
		c-0.45,0.235-0.748,0.269-0.934,0.275c-0.016,0-0.032,0.001-0.048,0.001c-0.074,0-0.148-0.005-0.226-0.014
		c-0.013-0.032-0.03-0.077-0.046-0.137c-0.48-2.382-0.281-7.502,3.353-18.343c3.068-9.098,7.271-19.514,12.5-30.926
		c5.266-11.389,11.294-23.318,17.923-35.433c6.641-11.995,13.213-23.332,19.53-33.71c6.297-10.223,11.995-19.037,16.929-26.226
		c6.013-8.678,8.85-11.892,10.171-13.066l0.064-0.057l0.06-0.06c3.827-3.807,3.784-7.41,3.072-9.768
		c-0.931-3.062-2.98-5.883-6.094-8.391c-2.902-2.339-6.425-4.42-10.474-6.185c-4.091-1.788-8.16-2.961-12.097-3.481
		c-1.112-0.147-2.144-0.214-3.101-0.214c-5.091,0-8.064,1.888-9.729,3.653c-2.791,2.793-6.432,7.762-11.124,15.215
		c-4.593,7.357-9.722,16.211-15.24,26.337c-5.538,10.259-11.247,21.686-16.965,33.973c-5.702,12.381-11.009,24.951-15.775,37.345
		c-3.211,8.412-6.165,16.833-8.787,25.033c-5.416,7.559-10.979,14.989-16.54,22.09c-5.668,7.311-10.895,13.287-15.542,17.742
		c-0.748,0.664-1.736,1.588-2.938,2.749c-0.995,0.959-2.012,1.752-3.019,2.352c-0.245,0.147-0.45,0.252-0.618,0.327
		c-0.004-0.021-0.008-0.043-0.012-0.065c-0.056-2.73,0.807-6.834,2.569-12.194c1.882-5.697,4.577-12.271,8.013-19.525
		c3.464-7.278,7.514-15.241,12.039-23.655c4.518-8.324,9.375-16.728,14.438-24.974c1.356-2.049,2.88-6.137-1.755-10.942
		c-2.819-2.926-6.385-5.425-10.602-7.431c-4.246-2.024-8.773-3.247-13.457-3.627c-0.188-0.015-0.37-0.027-0.549-0.037
		c-0.396-0.022-0.781-0.033-1.154-0.033c-5.773,0-8.865,2.563-10.47,4.835c-0.427,0.542-0.806,1.03-1.139,1.465
		c-1.752-2.875-4.08-5.214-6.962-6.985c-4.413-2.722-9.604-4.281-15.425-4.623c-0.682-0.04-1.372-0.06-2.067-0.06
		c-3.225,0-6.589,0.43-10.028,1.286c-4.206,1.06-8.386,2.909-12.426,5.5l-0.033,0.021l-0.032,0.021
		c-4.805,3.266-9.668,8.487-14.451,15.534c-4.627,6.876-8.988,14.758-12.96,23.426c-3.957,8.708-7.361,17.901-10.122,27.312
		c-1.298,4.439-2.381,8.802-3.222,12.98c-0.756,0.988-1.445,1.874-2.093,2.695c-6.139,7.819-11.415,13.825-15.688,17.821
		c-4.028,3.789-5.971,4.92-6.715,5.253c-0.058-0.396-0.051-0.609-0.046-0.683c0.377-4.907,1.941-11.505,4.653-19.591
		c2.796-8.304,6.117-17.247,9.872-26.569c0.768-1.899,1.468-3.674,2.081-5.276c0.521-1.372,1.086-2.681,1.684-3.9
		c0.735-1.512,1.394-2.903,2.019-4.264c0.704-1.539,1.484-3.445,2.324-5.671c4.234-9.925,6.198-18.473,5.826-25.453
		c-0.389-7.176-2.285-12.858-5.636-16.899c-3.437-4.153-7.915-6.625-13.308-7.335c-0.585-0.077-1.178-0.134-1.763-0.168
		c-0.45-0.026-0.901-0.039-1.35-0.039c-4.215,0-8.373,1.151-12.377,3.439c-4.142,2.444-8.332,5.569-12.483,9.312
		c-2.025,1.834-3.983,3.708-5.86,5.608c-0.269-2.071-0.742-4.069-1.42-5.982c-1.578-4.453-3.918-8.035-6.955-10.647
		c-3.081-2.657-6.84-4.275-11.171-4.801c-0.401-0.048-0.801-0.084-1.201-0.107c-0.37-0.021-0.741-0.032-1.113-0.032
		c-3.623,0-7.314,1.023-10.988,3.056l-0.082,0.045l-0.079,0.05c-3.641,2.317-7.237,5.247-10.69,8.712
		c-2.904,2.931-5.743,5.945-8.458,8.98c0.618-1.425,1.222-2.849,1.812-4.268c2.412-4.962,1.583-9.729-2.348-13.461
		c-3.187-3.039-7.255-5.275-12.088-6.64c-2.382-0.671-4.808-1.083-7.215-1.226c-0.644-0.038-1.292-0.057-1.942-0.057
		c-1.778,0-3.571,0.143-5.352,0.429c-5.937,0.968-8.806,3.993-10.191,6.868c-3.752,10.714-7.781,22.148-10.706,30.521l0.01,0.404
		c-0.536,1.636-1.072,3.28-1.607,4.936c-3.885,12.121-7.414,24.172-10.493,35.807c-3.073,11.708-5.643,22.828-7.643,33.039
		c-2.025,10.406-3.218,19.34-3.55,26.539c-0.104,2.258,0.027,4.674,0.389,7.179c0.381,2.598,1.082,5.054,2.085,7.307
		c1.01,2.269,2.312,4.275,3.869,5.959c1.792,1.925,3.988,3.004,6.532,3.214c0.915,0.119,1.814,0.179,2.685,0.179
		c0.319,0,0.635-0.008,0.946-0.024c3.491-0.182,6.549-1.382,9.159-3.52c4.735-5.535,8.871-15.289,11.657-23.036
		c0.876-3.106,1.914-6.469,3.118-10.073c2.062-6.161,4.311-12.518,6.683-18.896c2.388-6.401,4.959-12.669,7.643-18.632
		c2.615-5.788,5.117-11.251,7.436-16.245c3.654-7.11,7.027-11.847,10.021-14.095c1.625-1.214,2.583-1.683,3.073-1.865
		c0.112,0.557,0.228,2.231-0.888,6.235c-1.512,5.419-3.344,11.405-5.444,17.793c-2.933,9.129-5.729,18.307-8.317,27.294
		c-2.591,9.028-4.671,17.358-6.182,24.746l-0.013,0.063l-0.011,0.063c-1.486,8.681-0.196,15.366,3.826,19.84
		c3.767,4.177,8.328,6.566,13.558,7.114c0.9,0.094,1.798,0.141,2.683,0.141c0.426,0,0.848-0.011,1.267-0.033
		c3.715-0.193,7.276-1.244,10.584-3.118c6.427-3.61,7.834-8.857,7.88-12.627c0.011-3.297,0.639-8.06,1.867-14.182
		c1.264-6.299,2.84-13.018,4.686-19.968c1.832-6.898,3.962-13.735,6.334-20.323c2.343-6.474,4.65-12.036,6.858-16.539
		c2.367-4.373,4.765-8.065,7.129-10.974c1.942-2.381,3.201-3.392,3.896-3.82c0.003,0.016,0.005,0.032,0.008,0.048
		c0.132,0.811,0.209,3.555-1.967,11.291c-2.362,8.768-4.908,17.746-7.576,26.723c-2.754,9.3-4.416,17.937-4.943,25.647
		c-0.352,5.149-0.162,9.995,0.564,14.4c0.754,4.587,2.24,8.569,4.416,11.83c2.259,3.391,5.431,5.817,9.427,7.21
		c2.41,0.837,5.244,1.257,8.446,1.257c0.662,0,1.34-0.018,2.034-0.054c1.307-0.068,2.695-0.2,4.125-0.394l0.113-0.015l0.113-0.024
		c6.258-1.317,12.781-5.094,19.395-11.194c4.198-3.839,8.392-8.257,12.52-13.181c1.308,4.834,3.427,8.876,6.328,12.062
		c5.783,6.309,13.321,9.476,22.44,9.476c0.702,0,1.412-0.019,2.132-0.056l0.095-0.005l0.096-0.011
		c3.855-0.436,7.537-1.541,10.946-3.278c3.276-1.658,6.35-3.677,9.133-6c2.725-2.262,5.276-4.763,7.584-7.434
		c0.532-0.614,1.047-1.226,1.545-1.835c1.29,3.95,3.351,7.275,6.162,9.927c4.02,3.772,8.974,5.668,14.748,5.668
		c0.466,0,0.937-0.012,1.413-0.037c5.962-0.309,12.237-3.281,18.66-8.797c5.973-5.074,12.054-11.468,18.08-18.989
		c0.102-0.126,0.203-0.253,0.305-0.38c0.149,3.346,0.647,6.314,1.49,8.876c1.406,4.247,3.496,7.638,6.211,10.084
		c2.729,2.448,6.066,4.151,9.92,5.066c2.953,0.7,6.101,1.052,9.386,1.052c0.814,0,1.637-0.022,2.467-0.065
		c6.39-0.333,12.978-3.222,19.589-8.546c4.539-3.62,9.09-7.894,13.585-12.747c0.205,1.013,0.458,1.971,0.759,2.871
		c1.354,4.02,3.401,7.228,6.086,9.538c2.697,2.311,6.012,3.915,9.852,4.77c2.901,0.646,5.997,0.969,9.23,0.969
		c0.858,0,1.726-0.023,2.603-0.068c9.015-0.469,17.142-2.844,24.166-7.021c6.747-3.966,12.788-8.572,17.958-13.693
		c5.1-4.999,9.456-10.071,12.942-15.086c1.341-1.92,1.485-3.992,0.395-5.693c-1.221-1.908-3.788-3.042-6.884-3.042
		c-0.048,0-0.096,0-0.145,0.001c-2.669,0.03-8.006,0.966-13.75,6.929c-0.033,0.034-0.159,0.173-0.361,0.401
		c-6.448,7.307-8.974,9.334-9.76,9.866c-2.976,2.014-5.614,3.341-7.84,3.936c-1.787,0.483-3.426,0.75-4.879,0.796
		c-0.15,0.005-0.299,0.007-0.447,0.007c-0.244,0-0.484-0.006-0.717-0.02c-1.561-0.071-2.567-0.411-3.112-1.043
		c-0.786-0.901-1.28-1.742-1.476-2.507c-0.452-2.251-0.191-7.094,3.579-17.358c3.181-8.608,7.514-18.46,12.886-29.249
		c5.41-10.765,11.59-22.035,18.374-33.473c6.798-11.322,13.518-22.014,19.971-31.793c6.432-9.63,12.249-17.927,17.282-24.692
		c6.132-8.16,9.015-11.178,10.352-12.278l0.065-0.053l0.061-0.056C712.163,84.871,712.167,81.47,711.484,79.238z M481.242,172.426
		c-0.273,2.756-1.086,6.634-2.415,11.531c-1.348,4.961-3.125,10.352-5.279,16.027c-2.145,5.681-4.616,11.567-7.343,17.5
		c-2.679,5.845-5.501,11.269-8.385,16.117c-2.794,4.718-5.674,8.624-8.56,11.606c-2.406,2.496-4.575,3.796-6.448,3.858
		c-0.045,0.001-0.09,0.003-0.134,0.003c-0.389,0-0.722-0.117-0.935-1.364c-0.374-2.181-0.373-4.831,0.002-7.875
		c0.388-3.181,1.052-6.478,1.973-9.802c1-3.598,1.765-6.23,2.336-8.046c2.049-6.312,4.735-13.192,7.979-20.412
		c3.242-7.171,6.63-13.755,10.071-19.57c3.397-5.705,6.837-10.447,10.222-14.102c3.085-3.312,5.049-4.226,6.085-4.448
		c0.323,0.83,0.566,1.745,0.72,2.715c0.173,1.086,0.251,2.26,0.232,3.488C481.334,170.963,481.294,171.902,481.242,172.426z"/>
	<path style="fill:#DDBF43;" d="M220.735,187.85c2.66-0.144,4.805-0.231,6.371-0.26c1.591-0.03,2.162,0.008,2.289,0.018l0.349,0.054
		l0.412,0.008c0.497,0.01,0.981,0.01,1.452,0.001c6.008-0.114,10.416-1.75,13.104-4.842c2.593-2.95,3.789-6.705,3.549-11.175
		c-0.132-2.455-0.957-5.174-2.454-8.09c-1.425-2.766-3.237-5.356-5.391-7.71c-2.252-2.463-4.847-4.575-7.719-6.285
		c-3.321-1.985-6.885-3.065-10.596-3.205l-6.07-0.228c0.528-2.023,0.99-3.89,1.392-5.631c0.782-3.369,1.345-5.819,1.694-7.358
		l0.038-0.166l0.024-0.17c0.632-4.465-0.607-8.828-3.691-12.999c-2.684-3.64-5.973-6.819-9.78-9.456
		c-3.97-2.76-7.946-4.599-11.824-5.46c-0.824-0.182-1.613-0.308-2.355-0.375c-4.342-0.39-7.632,1.229-9.025,4.455l-0.212,0.493
		l-0.083,0.541c-0.102,0.666-0.332,1.453-0.682,2.34c-0.572,1.434-0.878,2.872-0.909,4.276l-5.956,19.966
		c0.015-0.063,0.03-0.127,0.045-0.19c1.026-4.301,1.716-7.459,2.05-9.396l0.095-0.549l-0.032-0.46
		c0.432-4.567-0.948-9.087-4.112-13.47c-2.864-3.972-6.326-7.402-10.297-10.203c-4.093-2.898-8.123-4.83-11.984-5.734
		c-0.779-0.182-1.526-0.307-2.228-0.374h0c-4.641-0.442-7.984,1.663-8.94,5.639l-0.075,0.315l-0.032,0.328
		c-0.124,1.26-0.757,4.82-3.587,14.553c-1.209,4.222-2.584,9.033-4.129,14.451c-1.236,4.376-2.47,8.999-3.679,13.785l-40.574,0.479
		l-0.222,0.003l-0.219,0.022c-2.977,0.302-6.679,2.343-7.403,10.348c-0.382,4.288-0.038,9.05,1.019,14.146
		c1.063,5.16,2.875,10.006,5.382,14.383c3.941,6.876,8.99,8.808,12.532,9.218l0.36,0.042l0.359-0.008
		c0.333-0.008,1.102,0.001,2.867,0.089c1.61,0.085,3.437,0.102,5.566,0.052l7.274-0.173c0.389-0.009,0.784-0.021,1.184-0.035
		l-0.548,2.221l-15.869,0.695l-0.204,0.009l-0.202,0.025c-4.538,0.568-8.48,0.959-11.717,1.159c-4.176,0.265-5.824,0.333-6.436,0.35
		c-2.237,0.063-7.522,1.25-8.271,10.918c-0.349,4.532,0.08,9.455,1.272,14.619c1.186,5.141,3.035,9.911,5.495,14.163
		c3.844,6.643,8.727,8.364,12.211,8.615c2.57,0.307,6.53,0.212,12.431-0.297c0.304-0.026,0.601-0.054,0.891-0.083
		c-0.207,1.166-0.359,2.156-0.458,2.978c-0.233,1.883-0.718,4.514-1.439,7.806l-0.076,0.347l-0.035,0.354
		c-0.417,4.181-0.053,8.574,1.079,13.046c1.094,4.335,2.735,8.339,4.875,11.889c2.186,3.627,4.701,6.538,7.474,8.649
		c3.326,2.523,6.65,3.553,9.879,3.073c3.389-0.504,6.406-2.557,8.973-6.087c2.228-3.046,3.637-7.05,4.305-12.237
		c0.37-1.628,1.219-5.584,2.655-12.331c1.316-6.136,3.159-13.779,5.496-22.731c0.233-0.031,0.46-0.06,0.681-0.086
		c-0.388,1.848-0.745,3.662-1.058,5.38c-0.292,1.593-0.561,3.214-0.796,4.81c-0.213,1.452-0.46,3.175-0.735,5.178l-0.008,0.055
		l-0.006,0.055c-0.465,3.984-0.153,8.109,0.924,12.249c1.027,3.95,2.534,7.638,4.476,10.956c2.015,3.446,4.377,6.218,7.015,8.232
		c3.206,2.436,6.493,3.412,9.769,2.914c4.999-0.76,11.435-4.313,13.788-16.838c0.38-1.51,1.369-5.753,3.185-13.605
		c1.589-6.805,3.627-14.669,6.075-23.392c0.5-0.071,0.926-0.144,1.294-0.221c0.258-0.052,1.175-0.209,3.453-0.398l0.091-0.008
		l0.091-0.01c6.097-0.704,11.807-1.329,16.97-1.859l2.02-0.205c3.413-0.346,5.382-0.545,5.909-0.596
		c0.422-0.019,0.835-0.045,1.237-0.078c5.744-0.474,9.991-2.41,12.625-5.736c2.541-3.168,3.708-6.981,3.46-11.344
		c-0.153-2.693-0.985-5.516-2.474-8.397c-1.438-2.774-3.327-5.341-5.619-7.64c-2.306-2.32-4.895-4.28-7.697-5.827
		c-3.133-1.735-6.382-2.715-9.663-2.908c-2.571-0.149-5.351-0.19-8.271-0.121l-1.029,0.024l0.872-2.711
		C210.619,188.446,216.155,188.101,220.735,187.85z M204.718,196.584c2.793-0.085,5.383-0.062,7.765,0.061
		c2.378,0.124,4.741,0.837,7.084,2.128c2.339,1.286,4.482,2.909,6.43,4.871c1.941,1.951,3.52,4.104,4.735,6.456
		c1.209,2.348,1.876,4.573,1.999,6.683c0.19,3.264-0.614,6.015-2.41,8.263c-1.642,2.074-4.505,3.268-8.583,3.576
		c-0.374,0.028-0.759,0.049-1.154,0.062c-0.215,0.016-2.928,0.272-8.14,0.764c-5.216,0.499-10.903,1.082-17.065,1.75
		c-1.918,0.146-3.302,0.305-4.144,0.47c-0.847,0.171-2.336,0.333-4.463,0.496c-2.928,10.346-5.283,19.432-7.081,27.218
		c-1.792,7.838-2.846,12.419-3.178,13.721c-1.372,7.548-4.366,11.665-8.979,12.333c-1.888,0.273-3.901-0.398-6.034-2.022
		c-2.141-1.634-4.063-3.897-5.764-6.799c-1.708-2.908-3.012-6.099-3.913-9.563c-0.903-3.468-1.16-6.85-0.769-10.137
		c0.275-1.973,0.522-3.669,0.735-5.097c0.213-1.422,0.467-2.958,0.773-4.603c0.303-1.644,0.651-3.395,1.048-5.259
		c0.392-1.856,0.913-4.208,1.558-7.047c-2.131,0.164-4.047,0.312-5.749,0.444c-1.707,0.132-3.721,0.398-6.044,0.793
		c-2.814,10.704-4.952,19.57-6.431,26.544c-1.475,7.013-2.366,11.213-2.682,12.582c-0.514,4.283-1.585,7.534-3.21,9.759
		c-1.628,2.236-3.384,3.491-5.274,3.758c-1.889,0.267-3.969-0.454-6.231-2.174c-2.269-1.728-4.326-4.119-6.174-7.178
		c-1.852-3.065-3.256-6.486-4.209-10.259c-0.956-3.771-1.259-7.394-0.907-10.852c0.774-3.494,1.289-6.274,1.548-8.343
		c0.254-2.066,0.93-5.529,2.03-10.373c-1.706,0.135-3.139,0.305-4.297,0.509c-1.162,0.208-2.491,0.368-3.977,0.486
		c-5.538,0.439-9.389,0.516-11.554,0.221c-3.233-0.209-5.925-2.16-8.065-5.853c-2.151-3.709-3.745-7.82-4.784-12.325
		c-1.042-4.512-1.411-8.709-1.106-12.586c0.306-3.87,1.428-5.835,3.362-5.902c1.073-0.037,3.271-0.169,6.597-0.403
		c3.321-0.228,7.328-0.65,12.021-1.27l19.651-0.993l3.432-13.714c-3.22,0.276-6.181,0.437-8.878,0.483
		c-2.7,0.046-5.13,0.087-7.285,0.124c-1.942,0.033-3.677,0.009-5.194-0.081c-1.523-0.086-2.606-0.127-3.252-0.116
		c-3.278-0.4-5.997-2.477-8.153-6.233c-2.166-3.772-3.713-7.905-4.637-12.392c-0.931-4.491-1.227-8.577-0.893-12.248
		c0.337-3.663,1.364-5.588,3.093-5.774l44.311-0.81c1.492-6.012,3.012-11.733,4.558-17.154c1.553-5.393,2.936-10.181,4.15-14.378
		c2.262-7.713,3.523-12.815,3.777-15.337c0.419-1.727,1.713-2.494,3.881-2.301c0.432,0.038,0.898,0.115,1.399,0.229
		c3.016,0.689,6.202,2.223,9.56,4.591c3.348,2.355,6.242,5.224,8.677,8.608c2.425,3.369,3.433,6.777,3.019,10.244l0.022,0.31
		c-0.312,1.833-0.969,4.885-1.978,9.166c-1.006,4.296-2.277,9.426-3.811,15.4c1.744,0.052,3.543,0.107,5.4,0.163
		c1.851,0.056,3.756,0.012,5.705-0.136l9.606-32.151c-0.068-1.011,0.131-2.106,0.603-3.279c0.467-1.171,0.781-2.25,0.936-3.245
		c0.621-1.428,1.999-2.052,4.128-1.874c0.472,0.039,0.981,0.118,1.527,0.235c3.007,0.65,6.117,2.095,9.337,4.325
		c3.21,2.218,5.953,4.871,8.231,7.967c2.268,3.078,3.177,6.253,2.721,9.535c-0.346,1.543-0.903,4.002-1.676,7.381
		c-0.773,3.391-1.786,7.322-3.029,11.798l13.419,0.415c2.618,0.081,5.113,0.832,7.481,2.239c2.367,1.404,4.474,3.123,6.334,5.16
		c1.851,2.027,3.385,4.231,4.606,6.609c1.215,2.375,1.877,4.5,1.981,6.382c0.187,3.393-0.637,6.134-2.468,8.225
		c-1.677,1.93-4.677,2.922-8.997,2.976c-0.395,0.005-0.8,0.002-1.217-0.009c-0.548-0.088-1.645-0.123-3.292-0.103
		c-1.647,0.02-3.845,0.094-6.595,0.224c-5.497,0.264-12.234,0.646-20.199,1.147l-3.761,11.836l-0.263,0.916
		C199.012,196.757,201.917,196.669,204.718,196.584z"/>
	<path style="fill:#DDBF43;" d="M155.748,186.284c-0.894,2.562-1.449,4.487-1.678,5.767c-0.229,1.283-0.757,3.643-1.577,7.078
		c1.937-0.061,3.711-0.117,5.326-0.168c1.614-0.051,3.487-0.215,5.626-0.493l3.64-12.359l-3.887,0.06L155.748,186.284z"/>
	<path style="fill:#DDBF43;" d="M163.607,77.496c12.43,3.905,25.672-3.005,29.577-15.435c3.905-12.43-3.005-25.672-15.435-29.577
		c-12.43-3.905-25.672,3.005-29.577,15.435C144.266,60.348,151.177,73.591,163.607,77.496z M153.805,49.689
		c2.928-9.319,12.855-14.499,22.174-11.572c9.319,2.928,14.499,12.855,11.571,22.174c-2.928,9.318-12.855,14.499-22.174,11.572
		C156.058,68.935,150.877,59.007,153.805,49.689z"/>
	<circle style="fill:#DDBF43;" cx="170.678" cy="54.99" r="12.291"/>
</g>
</svg>
